HIERARCHY
ROOT teapot2
{
	OFFSET 0.000000 0.000000 0.000000
	CHANNELS 6 Xposition Yposition Zposition Yrotation Xrotation Zrotation
	End Site
	{
		OFFSET 0.000000 0.000000 0.000000
	}
}
MOTION
Frames: 68
Frame Time: 0.008333334
1.087813 3.676511 3.776673 -12.442050 -0.091858 0.297835 
1.087772 3.676480 3.776793 -12.429260 -0.102448 0.289598 
1.087642 3.676509 3.777230 -12.436460 -0.057678 0.290500 
1.087780 3.676461 3.777701 -12.439330 -0.078186 0.281607 
1.087691 3.676559 3.778160 -12.407990 -0.038330 0.278848 
1.087453 3.676662 3.778448 -12.407990 -0.045868 0.285617 
1.087263 3.676671 3.778513 -12.413020 -0.042206 0.286818 
1.087139 3.676643 3.778451 -12.418850 -0.050629 0.293285 
1.086920 3.676680 3.778439 -12.414700 -0.028870 0.301368 
1.086759 3.676542 3.778497 -12.418550 -0.034882 0.298125 
1.086654 3.676450 3.778386 -12.423250 -0.035034 0.307979 
1.086415 3.676361 3.778131 -12.414550 -0.038605 0.321034 
1.086301 3.676288 3.777777 -12.431550 -0.053802 0.336788 
1.086161 3.676263 3.777629 -12.427280 -0.046539 0.339209 
1.086115 3.676285 3.777187 -12.424840 -0.088745 0.335304 
1.085664 3.676394 3.776525 -12.414860 -0.044250 0.330861 
1.085355 3.676293 3.776328 -12.422420 -0.049316 0.342808 
1.085100 3.676002 3.775888 -12.452000 -0.074310 0.349657 
1.084783 3.676096 3.775338 -12.426970 -0.064087 0.373266 
1.084655 3.676058 3.775274 -12.437130 -0.047424 0.368202 
1.084647 3.676099 3.775256 -12.434540 -0.009369 0.333826 
1.084553 3.675908 3.775206 -12.422360 -0.079468 0.346601 
1.084461 3.675950 3.775356 -12.432860 -0.040222 0.372653 
1.084389 3.675970 3.775273 -12.438480 -0.044617 0.366533 
1.084070 3.675997 3.775201 -12.430760 -0.050293 0.334372 
1.083972 3.675974 3.774956 -12.427340 -0.093445 0.365778 
1.083882 3.675900 3.774834 -12.439420 -0.078491 0.360702 
1.083973 3.675886 3.774382 -12.415990 -0.107575 0.389788 
1.084027 3.675825 3.773982 -12.414060 -0.103638 0.382982 
1.084007 3.675806 3.773596 -12.414430 -0.108582 0.382156 
1.084040 3.675700 3.773268 -12.410000 -0.115906 0.380639 
1.084061 3.675733 3.773107 -12.407260 -0.118835 0.392225 
1.083934 3.675696 3.772895 -12.411680 -0.115418 0.392405 
1.083754 3.675725 3.772793 -12.421540 -0.130646 0.384411 
1.083650 3.675745 3.772786 -12.424350 -0.121124 0.398081 
1.083438 3.675797 3.773090 -12.407140 -0.106873 0.397852 
1.083468 3.675804 3.773176 -12.420140 -0.117279 0.380965 
1.083494 3.675974 3.773474 -12.414860 -0.108063 0.391359 
1.083646 3.676066 3.773995 -12.409480 -0.115295 0.393774 
1.083512 3.676173 3.774435 -12.423550 -0.117859 0.379260 
1.083481 3.676085 3.774849 -12.428530 -0.088837 0.379280 
1.083552 3.675972 3.775204 -12.417720 -0.077271 0.374539 
1.083707 3.676145 3.775171 -12.426670 -0.046448 0.387110 
1.083536 3.676065 3.775161 -12.410430 -0.088409 0.384181 
1.083633 3.676114 3.775003 -12.413090 -0.051666 0.404507 
1.083425 3.675977 3.774804 -12.420840 -0.084320 0.374698 
1.083558 3.675826 3.774522 -12.418820 -0.080414 0.377450 
1.083763 3.675998 3.773892 -12.397670 -0.141388 0.387827 
1.083702 3.676066 3.773554 -12.401670 -0.117584 0.368182 
1.083733 3.675902 3.773315 -12.401370 -0.139984 0.400885 
1.083696 3.675533 3.773514 -12.414370 -0.026581 0.394279 
1.083653 3.675973 3.773316 -12.412450 -0.130463 0.401367 
1.083643 3.675849 3.773382 -12.411100 -0.107117 0.403541 
1.083505 3.675817 3.773529 -12.420650 -0.099457 0.401069 
1.083498 3.675663 3.773748 -12.427760 -0.053406 0.384824 
1.083491 3.675628 3.774160 -12.424470 -0.050049 0.391664 
1.083582 3.675570 3.774421 -12.428380 -0.018250 0.382997 
1.083383 3.675851 3.774478 -12.426940 -0.095245 0.370041 
1.083627 3.675789 3.774646 -12.410520 -0.078735 0.365708 
1.083644 3.675993 3.774911 -12.424680 -0.053192 0.339696 
1.084002 3.675972 3.774957 -12.422700 -0.050385 0.376616 
1.084155 3.675919 3.775016 -12.425750 -0.058441 0.361101 
1.084329 3.676165 3.775061 -12.428680 -0.024841 0.339067 
1.084364 3.676030 3.775034 -12.435760 -0.044342 0.362800 
1.084293 3.675881 3.774738 -12.420590 -0.086578 0.352325 
1.084177 3.675743 3.774563 -12.417850 -0.086395 0.353936 
1.084086 3.675565 3.774597 -12.437900 -0.077026 0.324869 
1.084661 3.675999 3.774513 -12.421810 -0.091553 0.369847 
